# xmcd
#
# Track frame offsets:
#       150
#       24612
#       42512
#       63925
#       76982
#       91697
#       112662
#       137132
#       151052
#       177190
#       191515
#       209392
#
# Disc length: 3002 seconds
#
# Revision: 0
# Processed by: cddbd v1.4PL0 Copyright (c) Steve Scherf et al.
# Submitted via: WhereIsIt 3.26
#
DISCID=900bb80c
DTITLE=Compromise Blue - Born on the wrong side
DYEAR=1900
DGENRE=
TTITLE0=Is it allright
TTITLE1=Born under the bad sign
TTITLE2=Arkansas woman
TTITLE3=I love the life i live
TTITLE4=300 pounds of heavenly joy
TTITLE5=Don't you know
TTITLE6=Mustang Sally
TTITLE7=I feel good
TTITLE8=Shadows
TTITLE9=I hear you knocking
TTITLE10=Cold sweat
TTITLE11=Saving all my love for you
EXTD=
EXTT0=
EXTT1=
EXTT2=
EXTT3=
EXTT4=
EXTT5=
EXTT6=
EXTT7=
EXTT8=
EXTT9=
EXTT10=
EXTT11=
PLAYORDER=
